<svg width="9" height="7" viewBox="0 0 9 7" fill="none" xmlns="http://www.w3.org/2000/svg">
<path d="M0 3.5001C0 3.67473 0.141544 3.81628 0.316176 3.81628L7.93014 3.81628L5.93566 5.80892C5.875 5.86958 5.84375 5.95047 5.84375 6.03135C5.84375 6.11223 5.875 6.19311 5.93566 6.25378C6.05882 6.37694 6.25919 6.37694 6.38235 6.25378L8.91176 3.72253C9.02941 3.60488 9.02941 3.39532 8.91176 3.27583L6.38051 0.746424C6.25735 0.623262 6.05698 0.623262 5.93382 0.746424C5.81066 0.869586 5.81066 1.06995 5.93382 1.19312L7.92647 3.18576L0.314338 3.18576C0.139706 3.18392 0 3.32547 0 3.5001Z" fill="#887569"/>
</svg>
