<svg width="21" height="17" viewBox="0 0 21 17" fill="none" xmlns="http://www.w3.org/2000/svg">
<path d="M20.9139 6.92674C20.8317 6.81562 20.7013 6.75 20.563 6.75H0.437904C0.29964 6.75 0.169291 6.81563 0.0861524 6.92588C0.00391578 7.03699 -0.021473 7.1805 0.0187635 7.31261L2.26926 14.8158C2.54927 15.7485 3.3919 16.375 4.36488 16.375H16.6359C17.609 16.375 18.4516 15.7485 18.7307 14.8166L20.9812 7.31347C21.0215 7.18136 20.9961 7.03699 20.9139 6.92674ZM17.8934 14.5647C17.7245 15.1238 17.2196 15.5 16.6351 15.5H4.36492C3.7804 15.5 3.27554 15.1238 3.10754 14.5647L1.02591 7.62499H19.975L17.8934 14.5647Z" fill="#887569"/>
<path d="M9.40482 0.682966C9.19568 0.563077 8.92792 0.634854 8.80717 0.845716L5.30716 6.97073C5.18818 7.18073 5.26077 7.44762 5.47078 7.56747C5.53903 7.60684 5.61339 7.62522 5.68779 7.62522C5.83918 7.62522 5.98704 7.54647 6.06842 7.40472L9.56847 1.2797C9.68746 1.0697 9.61482 0.802814 9.40482 0.682966Z" fill="#887569"/>
<path d="M15.693 6.97073L12.193 0.845716C12.0705 0.634854 11.8019 0.563077 11.5954 0.682966C11.3845 0.802855 11.3119 1.0697 11.4318 1.2797L14.9318 7.40472C15.0132 7.54647 15.161 7.62522 15.3124 7.62522C15.3868 7.62522 15.4612 7.60684 15.5294 7.56747C15.7403 7.44762 15.8129 7.18073 15.693 6.97073Z" fill="#887569"/>
</svg>
