<svg width="17" height="17" viewBox="0 0 17 17" fill="none" xmlns="http://www.w3.org/2000/svg">
<g clip-path="url(#clip0_48_353)">
<path d="M9.64741 16.9668H6.91968C6.46406 16.9668 6.09344 16.5969 6.09344 16.1422V10.0017H4.50203C4.04641 10.0017 3.67578 9.63163 3.67578 9.17703V6.54582C3.67578 6.09109 4.04641 5.72118 4.50203 5.72118H6.09344V4.40356C6.09344 3.0971 6.50448 1.98557 7.28199 1.18935C8.06301 0.389488 9.15449 -0.0332031 10.4384 -0.0332031L12.5187 -0.0298309C12.9736 -0.0290527 13.3435 0.340851 13.3435 0.7948V3.23782C13.3435 3.69255 12.973 4.06245 12.5176 4.06245L11.1169 4.06297C10.6898 4.06297 10.581 4.14845 10.5577 4.17464C10.5194 4.21809 10.4738 4.34092 10.4738 4.68008V5.72105H12.4123C12.5582 5.72105 12.6996 5.75698 12.8211 5.82468C13.0832 5.97086 13.2462 6.24725 13.2462 6.54595L13.2452 9.17716C13.2452 9.63163 12.8745 10.0015 12.4189 10.0015H10.4738V16.1422C10.4738 16.5969 10.103 16.9668 9.64741 16.9668ZM7.092 15.9702H9.47509V9.5555C9.47509 9.25187 9.72265 9.00492 10.0267 9.00492H12.2466L12.2475 6.7178H10.0266C9.72252 6.7178 9.47509 6.47085 9.47509 6.16722V4.68008C9.47509 4.29073 9.51472 3.84793 9.8092 3.51512C10.165 3.11279 10.7258 3.06636 11.1167 3.06636L12.345 3.06584V0.966522L10.4377 0.96341C8.37425 0.96341 7.092 2.28168 7.092 4.40356V6.16722C7.092 6.47072 6.84457 6.7178 6.54048 6.7178H4.67434V9.00492H6.54048C6.84457 9.00492 7.092 9.25187 7.092 9.5555V15.9702ZM12.5168 0.966782H12.5169H12.5168Z" fill="#7D6C65"/>
</g>
<defs>
<clipPath id="clip0_48_353">
<rect width="17" height="17" fill="white"/>
</clipPath>
</defs>
</svg>
