<svg width="21" height="19" viewBox="0 0 21 19" fill="none" xmlns="http://www.w3.org/2000/svg">
<path d="M5.95445 0.807291C7.70625 0.797929 9.37161 1.56729 10.5 2.90727C11.6214 1.55813 13.2914 0.786583 15.0456 0.807291C18.3341 0.807291 21 3.47315 21 6.76169C21 12.3972 11.1646 17.8997 10.7658 18.1123C10.6049 18.2198 10.3951 18.2198 10.2342 18.1123C9.83543 17.8997 0 12.4769 0 6.76169C0 3.47315 2.66591 0.807291 5.95445 0.807291ZM10.5 17.049C12.0418 16.1453 19.9367 11.3339 19.9367 6.76169C19.9367 4.06041 17.7469 1.87053 15.0456 1.87053C13.3913 1.84881 11.8433 2.68319 10.9519 4.07685C10.7709 4.32641 10.4218 4.38203 10.1723 4.20099C10.1246 4.1664 10.0827 4.12452 10.0481 4.07685C8.56979 1.81599 5.53855 1.18162 3.27769 2.65994C1.89365 3.56494 1.06059 5.10798 1.06334 6.76164C1.06329 11.387 8.95826 16.1718 10.5 17.049Z" fill="#887569"/>
</svg>
