<svg width="17" height="17" viewBox="0 0 17 17" fill="none" xmlns="http://www.w3.org/2000/svg">
<path d="M12.3982 0H4.60174C2.0643 0 0 2.0643 0 4.60174V12.3984C0 14.9357 2.0643 17 4.60174 17H12.3984C14.9357 17 17 14.9357 17 12.3984V4.60174C17 2.0643 14.9357 0 12.3982 0V0ZM16.0034 12.3984C16.0034 14.3861 14.3861 16.0034 12.3982 16.0034H4.60174C2.61383 16.0034 0.996611 14.3861 0.996611 12.3984V4.60174C0.996611 2.61383 2.61383 0.996611 4.60174 0.996611H12.3984C14.3861 0.996611 16.0034 2.61383 16.0034 4.60174V12.3984Z" fill="#7D6C65"/>
<path d="M8.49986 3.85156C5.93674 3.85156 3.85156 5.93674 3.85156 8.49986C3.85156 11.063 5.93674 13.1482 8.49986 13.1482C11.063 13.1482 13.1482 11.063 13.1482 8.49986C13.1482 5.93674 11.063 3.85156 8.49986 3.85156ZM8.49986 12.1515C6.48641 12.1515 4.84817 10.5134 4.84817 8.49986C4.84817 6.48641 6.48641 4.84817 8.49986 4.84817C10.5134 4.84817 12.1515 6.48641 12.1515 8.49986C12.1515 10.5134 10.5134 12.1515 8.49986 12.1515Z" fill="#7D6C65"/>
<path d="M13.2593 2.20093C12.5018 2.20093 11.8857 2.81713 11.8857 3.57445C11.8857 4.33189 12.5018 4.94809 13.2593 4.94809C14.0167 4.94809 14.6329 4.33189 14.6329 3.57445C14.6329 2.817 14.0167 2.20093 13.2593 2.20093ZM13.2593 3.95135C13.0515 3.95135 12.8824 3.78222 12.8824 3.57445C12.8824 3.36654 13.0515 3.19754 13.2593 3.19754C13.4672 3.19754 13.6363 3.36654 13.6363 3.57445C13.6363 3.78222 13.4672 3.95135 13.2593 3.95135Z" fill="#7D6C65"/>
</svg>
