<svg width="12" height="12" viewBox="0 0 12 12" fill="none" xmlns="http://www.w3.org/2000/svg">
<path d="M5.99167 0C3.56662 0 1.59375 1.97287 1.59375 4.39792C1.59375 5.51193 2.29568 7.08591 3.68015 9.07617C4.69208 10.531 5.68735 11.6569 5.72928 11.7041L5.99167 12L6.25415 11.7041C6.29599 11.6569 7.29126 10.531 8.30328 9.07617C9.68765 7.08591 10.3897 5.51193 10.3897 4.39792C10.3897 1.97287 8.41672 0 5.99167 0V0ZM7.73117 8.66986C7.04718 9.65387 6.35587 10.5007 5.99167 10.9328C5.62839 10.5019 4.93964 9.65826 4.2561 8.67554C2.97336 6.83148 2.29532 5.35226 2.29532 4.39792C2.29532 2.35977 3.95352 0.701569 5.99167 0.701569C8.02991 0.701569 9.68802 2.35977 9.68802 4.39792C9.68802 5.35126 9.01135 6.82846 7.73117 8.66986Z" fill="#7D6C65"/>
<path d="M5.99112 1.62549C4.55988 1.62549 3.39551 2.78986 3.39551 4.2211C3.39551 5.65234 4.55988 6.8168 5.99112 6.8168C7.42246 6.8168 8.58682 5.65234 8.58682 4.2211C8.58682 2.78986 7.42246 1.62549 5.99112 1.62549V1.62549ZM5.99112 6.11523C4.94678 6.11523 4.09708 5.26553 4.09708 4.2211C4.09708 3.17676 4.94678 2.32706 5.99112 2.32706C7.03555 2.32706 7.88525 3.17676 7.88525 4.2211C7.88525 5.26553 7.03555 6.11523 5.99112 6.11523Z" fill="#7D6C65"/>
</svg>
