<svg width="9" height="9" viewBox="0 0 9 9" fill="none" xmlns="http://www.w3.org/2000/svg">
<g clip-path="url(#clip0_8_3257)">
<path d="M6.46827 9C6.17775 9 5.88969 8.94864 5.60801 8.8463C4.36708 8.39551 3.21523 7.6613 2.27695 6.72304C1.33867 5.78478 0.604462 4.63291 0.153689 3.39198C0.00883375 2.99319 -0.0339145 2.58152 0.0266748 2.16838C0.0834323 1.7814 0.233332 1.40572 0.460186 1.08194C0.688042 0.756742 0.991815 0.486261 1.33865 0.299747C1.70852 0.100859 2.11222 0 2.53857 0C2.67118 0 2.78578 0.0926505 2.81357 0.222301L3.25501 2.28236C3.275 2.37564 3.24633 2.4727 3.17888 2.54016L2.42458 3.29445C3.13615 4.70918 4.29078 5.8638 5.70551 6.57537L6.45979 5.82107C6.52726 5.75363 6.62434 5.725 6.7176 5.74495L8.77766 6.18638C8.90733 6.21417 8.99996 6.32878 8.99996 6.46138C8.99996 6.88774 8.8991 7.29146 8.70019 7.66132C8.51368 8.00816 8.2432 8.31193 7.918 8.53979C7.59424 8.76664 7.21856 8.91654 6.83156 8.9733C6.71029 8.99111 6.58904 8.99998 6.46827 9ZM2.31386 0.574781C1.75148 0.636865 1.25231 0.931638 0.920837 1.40473C0.548091 1.93671 0.461171 2.59103 0.682365 3.19995C1.549 5.58566 3.41433 7.45099 5.80004 8.31763C6.40894 8.53882 7.06326 8.45192 7.59526 8.07915C8.06836 7.74768 8.36313 7.24852 8.42521 6.68613L6.74936 6.32702L5.96162 7.11477C5.87779 7.1986 5.75042 7.22087 5.64317 7.17046C3.96997 6.38439 2.6156 5.03002 1.82954 3.35683C1.77914 3.24955 1.80139 3.12219 1.88522 3.03838L2.67297 2.25063L2.31386 0.574781Z" fill="#887569"/>
</g>
<defs>
<clipPath id="clip0_8_3257">
<rect width="9" height="9" fill="white"/>
</clipPath>
</defs>
</svg>
