<svg width="18" height="18" viewBox="0 0 18 18" fill="none" xmlns="http://www.w3.org/2000/svg">
<path d="M17.8482 17.082L13.4739 12.7078C14.6473 11.3588 15.3577 9.59867 15.3577 7.67494C15.3577 3.44035 11.9134 0 7.68276 0C3.44817 0 0.0078125 3.44435 0.0078125 7.67494C0.0078125 11.9055 3.45216 15.3499 7.68276 15.3499C9.60648 15.3499 11.3666 14.6395 12.7156 13.4661L17.0899 17.8404C17.1936 17.9441 17.3333 18 17.469 18C17.6047 18 17.7444 17.9481 17.8482 17.8404C18.0557 17.6328 18.0557 17.2896 17.8482 17.082ZM1.08143 7.67494C1.08143 4.03503 4.04285 1.07761 7.67877 1.07761C11.3187 1.07761 14.2761 4.03902 14.2761 7.67494C14.2761 11.3109 11.3187 14.2763 7.67877 14.2763C4.04285 14.2763 1.08143 11.3149 1.08143 7.67494Z" fill="#887569"/>
</svg>
